<svg aria-hidden="true" style="position: absolute; width: 0; height: 0; overflow: hidden;" version="1.1" xmlns="http://www.w3.org/2000/svg" xmlns:xlink="http://www.w3.org/1999/xlink">
<defs>
<symbol id="logo" viewBox="0 0 41 32">
<path fill="#28a745" style="fill: var(--color1, #28a745)" d="M38.196 0.196c-3.861 0.221-11.532 1.019-16.268 3.924-0.328 0.2-0.513 0.557-0.513 0.929v25.676c0 0.815 0.89 1.331 1.64 0.952 4.872-2.457 11.921-3.128 15.405-3.31 1.19-0.062 2.115-1.018 2.115-2.164v-23.839c0-1.25-1.081-2.24-2.379-2.168zM18.649 4.121c-4.736-2.906-12.409-3.704-16.268-3.924-1.3-0.073-2.38 0.917-2.38 2.167v23.84c0 1.146 0.925 2.101 2.115 2.164 3.486 0.183 10.537 0.854 15.412 3.314 0.747 0.377 1.634-0.137 1.634-0.951v-25.694c0-0.002 0-0.005 0-0.007 0-0.383-0.203-0.72-0.507-0.907l-0.005-0.003z"></path>
</symbol>
<symbol id="university" viewBox="0 0 32 32">
<path fill="#fff" style="fill: var(--color2, #fff)" d="M31 8v1c0 0.276-0.224 0.5-0.5 0.5v0h-1.499v0.75c0 0.414-0.336 0.75-0.75 0.75v0h-24.501c-0.414 0-0.75-0.336-0.75-0.75v0-0.75h-1.5c-0.276 0-0.5-0.224-0.5-0.5v0-1c0-0.207 0.126-0.385 0.306-0.46l0.003-0.001 14.5-5.5c0.056-0.024 0.122-0.038 0.191-0.038s0.135 0.014 0.194 0.039l-0.003-0.001 14.501 5.5c0.182 0.077 0.308 0.254 0.308 0.461 0 0 0 0 0 0.001v-0zM29.5 27h-27.001c-0.828 0-1.499 0.671-1.499 1.499v0 1.001c0 0.276 0.224 0.5 0.5 0.5h28.999c0.276 0 0.5-0.224 0.5-0.5v0-1c0-0.828-0.671-1.499-1.499-1.499v0zM6 12v12h-2.251c-0.414 0-0.75 0.336-0.75 0.75v0 1.25h26v-1.25c0-0.414-0.336-0.75-0.75-0.75v0h-2.251v-12h-4v12h-4v-12h-4v12h-3.999v-12h-4.001z"></path>
</symbol>
<symbol id="pencil" viewBox="0 0 32 32">
<path fill="#fff" style="fill: var(--color2, #fff)" d="M31.119 8.881l-2.881 2.881c-0.136 0.136-0.324 0.22-0.531 0.22s-0.395-0.084-0.531-0.22v0l-6.938-6.938c-0.136-0.136-0.22-0.324-0.22-0.531s0.084-0.395 0.22-0.531v0l2.881-2.881c0.544-0.542 1.294-0.877 2.122-0.877s1.578 0.335 2.122 0.877l3.756 3.756c0.544 0.542 0.881 1.293 0.881 2.122s-0.337 1.58-0.881 2.122l-0 0zM17.763 6.237l-16.412 16.412-1.326 7.595c-0.181 1.025 0.713 1.913 1.737 1.737l7.594-1.331 16.412-16.411c0.136-0.136 0.221-0.324 0.221-0.532s-0.084-0.396-0.221-0.532l-6.937-6.938c-0.137-0.136-0.326-0.221-0.535-0.221s-0.398 0.084-0.535 0.221l0-0zM7.756 21.243c-0.159-0.158-0.258-0.377-0.258-0.619s0.098-0.461 0.258-0.618l9.626-9.626c0.158-0.159 0.377-0.258 0.619-0.258s0.461 0.098 0.618 0.258l0 0c0.159 0.158 0.258 0.377 0.258 0.619s-0.099 0.461-0.258 0.619l-9.625 9.625c-0.158 0.159-0.377 0.258-0.619 0.258s-0.461-0.099-0.619-0.258l-0-0zM5.5 26.501h2.999v2.267l-4.030 0.707-1.944-1.944 0.706-4.031h2.269v3z"></path>
</symbol>
<symbol id="arrow-right" viewBox="0 0 16 32">
<path fill="#fff" style="fill: var(--color2, #fff)" d="M14.020 17.063l-8.501 8.498c-0.271 0.272-0.645 0.441-1.060 0.441s-0.789-0.169-1.059-0.441l-1.412-1.412c-0.272-0.27-0.44-0.645-0.44-1.059s0.168-0.788 0.44-1.059l6.025-6.027-6.025-6.025c-0.272-0.271-0.44-0.645-0.44-1.059s0.168-0.788 0.44-1.059l0-0 1.406-1.426c0.271-0.272 0.645-0.441 1.060-0.441s0.789 0.169 1.059 0.441l8.5 8.5c0.594 0.587 0.594 1.538 0.007 2.126z"></path>
</symbol>
<symbol id="fasebook" viewBox="0 0 32 32">
<path fill="#fff" style="fill: var(--color2, #fff)" d="M31.5 16.343c0-8.562-6.938-15.5-15.5-15.5s-15.5 6.938-15.5 15.5c0 7.75 5.625 14.188 13.062 15.312v-10.812h-3.938v-4.5h3.938v-3.375c0-3.876 2.313-6.063 5.812-6.063 1.751 0 3.501 0.313 3.501 0.313v3.813h-1.938c-1.937 0-2.562 1.187-2.562 2.437v2.875h4.312l-0.688 4.5h-3.624v10.812c7.437-1.125 13.125-7.562 13.125-15.312z"></path>
</symbol>
<symbol id="twitter" viewBox="0 0 37 32">
<path fill="#fff" style="fill: var(--color2, #fff)" d="M33.469 8.284v1.021c0 10.135-7.657 21.728-21.729 21.728-4.375 0-8.385-1.238-11.74-3.426 0.583 0.073 1.167 0.146 1.823 0.146 3.573 0 6.854-1.241 9.479-3.282-3.355-0.073-6.197-2.26-7.147-5.323 0.511 0.074 0.949 0.146 1.459 0.146 0.656 0 1.385-0.146 1.968-0.292-3.499-0.729-6.125-3.791-6.125-7.509v-0.074c1.021 0.583 2.261 0.875 3.5 0.948-2.075-1.364-3.426-3.682-3.426-6.315 0-0.010 0-0.021 0-0.031v0.002c0-1.458 0.364-2.77 1.021-3.865 3.833 4.613 9.441 7.637 15.761 8.018l0.062 0.003c-0.138-0.525-0.218-1.127-0.22-1.749v-0.001c0-0.001 0-0.001 0-0.002 0-4.228 3.427-7.655 7.655-7.655 0.001 0 0.002 0 0.002 0h-0c2.188 0 4.157 0.875 5.615 2.405 1.819-0.404 3.427-1.058 4.886-1.936l-0.073 0.041c-0.583 1.824-1.75 3.281-3.355 4.229 1.618-0.17 3.099-0.583 4.465-1.204l-0.090 0.037c-1.021 1.532-2.334 2.844-3.792 3.938z"></path>
</symbol>
<symbol id="youtube" viewBox="0 0 45 32">
<path fill="#fff" style="fill: var(--color2, #fff)" d="M43.665 5.831c0.972 3.403 0.972 10.694 0.972 10.694s0 7.211-0.972 10.695c-0.486 1.944-2.027 3.401-3.89 3.889-3.483 0.891-17.256 0.891-17.256 0.891s-13.855 0-17.338-0.891c-1.863-0.486-3.403-1.944-3.889-3.889-0.972-3.484-0.972-10.695-0.972-10.695s0-7.291 0.972-10.694c0.486-1.944 2.025-3.484 3.887-3.97 3.486-0.972 17.339-0.972 17.339-0.972s13.773 0 17.256 0.972c1.864 0.486 3.404 2.027 3.89 3.97zM17.982 23.087l11.505-6.562-11.505-6.562v13.125z"></path>
</symbol>
<symbol id="in" viewBox="0 0 32 32">
<path fill="#fff" style="fill: var(--color2, #fff)" d="M7.25 32h-6.562v-21.099h6.562v21.099zM3.934 8.078c-2.047 0-3.74-1.764-3.74-3.881 0-2.046 1.692-3.74 3.739-3.74 2.116 0 3.81 1.694 3.81 3.74 0 2.117-1.693 3.881-3.81 3.881zM31.736 32h-6.492v-10.232c0-2.47-0.070-5.574-3.458-5.574-3.386 0-3.881 2.611-3.881 5.363v10.443h-6.562v-21.099h6.28v2.893h0.071c0.917-1.623 3.035-3.387 6.209-3.387 6.633 0 7.904 4.375 7.904 10.020v11.573h-0.071z"></path>
</symbol>
<symbol id="book" viewBox="0 0 32 32">
<path fill="#fff" style="fill: var(--color2, #fff)" d="M22 6c0-3.314-2.686-6-6-6s-6 2.686-6 6v0c0 3.313 2.686 6 6 6s6-2.686 6-6v0zM14.599 15.068c-3.708-2.268-9.714-2.894-12.736-3.066-1.018-0.058-1.863 0.717-1.863 1.693v13.925c0 0.896 0.724 1.643 1.655 1.691 2.729 0.143 8.251 0.667 12.066 2.589 0.585 0.295 1.28-0.107 1.28-0.741v-15.375c0-0.001 0-0.003 0-0.005 0-0.3-0.159-0.564-0.398-0.71l-0.004-0.002zM30.138 12.003c-3.022 0.172-9.029 0.795-12.736 3.066-0.242 0.152-0.401 0.418-0.401 0.721 0 0.002 0 0.004 0 0.007v-0 15.362c0 0.637 0.697 1.040 1.284 0.744 3.815-1.92 9.333-2.445 12.061-2.587 0.931-0.048 1.655-0.795 1.655-1.691v-13.926c0-0.976-0.847-1.751-1.862-1.693z"></path>
</symbol>
</defs>
</svg>
